<?xml version="1.0" standalone="no"?>
<!DOCTYPE svg PUBLIC "-//W3C//DTD SVG 20010904//EN"
 "http://www.w3.org/TR/2001/REC-SVG-20010904/DTD/svg10.dtd">
<svg version="1.0" xmlns="http://www.w3.org/2000/svg"
 width="2968.000000pt" height="2375.000000pt" viewBox="0 0 2968.000000 2375.000000"
 preserveAspectRatio="xMidYMid meet">

<g transform="translate(0.000000,2375.000000) scale(0.100000,-0.100000)"
fill="#000000" stroke="none">
<path d="M7480 21944 c-706 -50 -1330 -472 -1639 -1108 -77 -160 -131 -326
-168 -521 -24 -127 -29 -455 -9 -599 137 -976 963 -1696 1946 -1696 936 0
1731 649 1926 1572 35 168 45 486 20 658 -40 270 -121 504 -251 725 -301 511
-816 860 -1400 949 -105 16 -331 26 -425 20z"/>
<path d="M15660 21939 c-557 -49 -1086 -349 -1413 -800 -34 -47 -242 -306
-463 -575 -1159 -1415 -6226 -7660 -7289 -8984 -148 -184 -295 -363 -326 -397
-272 -295 -448 -668 -505 -1069 -20 -144 -15 -472 9 -599 78 -415 259 -764
542 -1049 376 -378 860 -579 1395 -579 196 0 326 16 508 64 416 109 814 379
1061 718 25 35 118 152 207 260 1136 1389 4755 5846 6760 8326 302 374 679
840 837 1035 158 195 317 389 353 430 438 498 578 1253 354 1903 -254 738
-922 1254 -1704 1317 -143 11 -188 11 -326 -1z"/>
<path d="M23940 21943 c-714 -50 -1325 -455 -1644 -1091 -294 -587 -264 -1321
78 -1881 155 -254 363 -470 611 -634 425 -280 964 -381 1479 -276 628 128
1175 587 1415 1189 259 647 157 1379 -268 1935 -63 82 -221 245 -306 315 -380
311 -890 477 -1365 443z"/>
<path d="M20160 17374 c-400 -48 -730 -184 -1039 -428 -102 -80 -254 -237
-327 -337 -32 -44 -124 -160 -204 -257 -706 -857 -3593 -4417 -4025 -4962 -55
-69 -134 -164 -176 -212 -361 -404 -537 -885 -516 -1408 49 -1212 1173 -2091
2360 -1845 461 95 890 367 1167 740 41 55 147 188 235 295 583 705 3188 3915
3875 4775 123 154 250 309 283 345 461 504 631 1194 457 1848 -86 321 -245
602 -480 845 -305 317 -655 503 -1095 583 -87 16 -433 28 -515 18z"/>
<path d="M17800 6314 c-124 -23 -189 -42 -270 -81 -79 -38 -108 -59 -175 -127
-55 -55 -93 -104 -117 -151 -43 -84 -100 -257 -123 -377 l-18 -88 -148 0
c-135 0 -149 -2 -149 -17 -1 -43 -14 -44 -92 -8 -101 46 -184 65 -293 65 -190
0 -334 -69 -463 -220 -28 -34 -52 -56 -52 -49 0 7 7 51 16 97 12 63 13 91 5
109 l-11 23 -385 0 -385 0 -5 -22 c-3 -13 -86 -483 -185 -1045 -152 -863 -178
-1026 -168 -1043 13 -20 23 -20 425 -20 227 0 413 3 413 6 0 22 135 769 156
864 74 331 171 521 305 595 48 27 63 30 139 30 70 0 97 -5 154 -29 65 -27 70
-28 82 -11 7 9 79 126 161 260 81 134 149 242 151 240 1 -1 -14 -98 -34 -215
-27 -154 -35 -217 -27 -229 8 -13 33 -16 142 -19 112 -2 131 -5 131 -18 0 -9
-56 -335 -125 -725 -106 -597 -123 -712 -113 -729 13 -20 23 -20 424 -20 l410
0 128 728 c70 400 130 735 132 745 5 15 23 17 195 17 115 0 189 4 189 10 0 5
23 139 51 296 39 224 48 293 40 311 -10 23 -12 23 -187 23 -139 0 -175 3 -171
13 2 7 10 38 16 69 15 69 59 141 103 165 28 15 53 18 163 15 72 -1 150 -3 174
-5 l44 -2 90 248 c87 243 89 249 71 267 -15 14 -55 22 -174 35 -145 16 -584
29 -640 19z"/>
<path d="M1416 6243 c-21 -103 -496 -2820 -496 -2837 0 -46 4 -46 396 -46
l372 0 5 23 c3 12 81 453 174 981 92 527 170 950 172 940 2 -11 38 -451 80
-979 l76 -960 350 -2 350 -3 419 970 c231 533 421 968 423 966 2 -2 -71 -430
-163 -951 -124 -701 -165 -951 -157 -964 9 -14 50 -16 387 -19 207 -1 376 1
376 5 1 5 115 652 254 1438 170 963 250 1436 244 1448 -8 16 -45 17 -604 15
l-596 -3 -351 -812 c-194 -446 -354 -810 -356 -807 -3 2 -34 368 -71 812 l-65
807 -607 3 -606 2 -6 -27z"/>
<path d="M11128 6067 c-234 -111 -430 -206 -434 -210 -4 -4 -22 -87 -39 -185
l-31 -177 -147 -3 -146 -3 -6 -32 c-3 -17 -28 -153 -54 -302 -43 -243 -47
-272 -33 -287 13 -15 34 -18 145 -18 129 0 129 0 124 -22 -13 -54 -130 -732
-143 -828 -36 -272 -4 -432 110 -545 87 -87 183 -120 387 -134 156 -11 365 2
555 34 81 14 149 27 152 30 2 2 13 131 24 286 25 343 32 322 -102 289 -117
-29 -196 -31 -233 -7 -25 16 -27 23 -27 80 0 34 29 228 65 430 36 202 65 372
65 377 0 6 85 10 219 10 l219 0 6 28 c20 101 96 546 96 565 0 44 -12 47 -222
47 -182 0 -198 1 -198 18 1 9 29 177 64 372 58 322 62 357 48 373 -8 9 -20 17
-26 16 -6 0 -203 -91 -438 -202z"/>
<path d="M18845 6258 c-2 -7 -24 -134 -50 -281 -37 -213 -44 -271 -35 -282 11
-13 75 -15 424 -15 l411 0 49 279 c41 232 47 283 36 295 -11 14 -64 16 -422
16 -318 0 -409 -3 -413 -12z"/>
<path d="M8570 5515 c-235 -32 -402 -96 -551 -211 -248 -190 -348 -528 -229
-767 37 -75 104 -151 170 -195 88 -59 236 -103 558 -167 347 -69 402 -85 437
-127 22 -26 26 -39 21 -66 -16 -104 -140 -173 -310 -174 -186 -1 -260 49 -300
203 l-14 54 -43 -3 c-24 -1 -213 -18 -418 -37 -206 -19 -379 -35 -384 -35 -12
0 -1 -105 19 -184 36 -139 141 -284 257 -354 124 -75 299 -115 573 -133 210
-14 453 -2 614 31 353 72 610 251 740 515 51 105 70 183 70 291 0 150 -47 267
-143 362 -129 126 -317 191 -702 242 -299 40 -386 65 -405 116 -22 57 34 136
117 165 21 8 81 14 133 14 86 0 101 -3 155 -30 49 -24 64 -38 83 -75 12 -24
22 -57 22 -72 0 -21 5 -28 20 -28 10 0 180 16 377 35 197 19 368 35 381 35 14
0 27 9 34 25 17 39 -39 204 -103 299 -62 94 -121 145 -224 195 -146 71 -288
91 -630 90 -128 -1 -272 -7 -325 -14z"/>
<path d="M13185 5516 c-316 -53 -552 -171 -760 -380 -224 -226 -355 -527 -381
-876 -23 -328 120 -640 366 -799 127 -82 299 -126 545 -141 349 -20 673 27
892 130 158 74 343 224 478 391 54 65 57 70 42 92 -14 21 -31 24 -403 58
l-389 37 -61 -58 c-159 -148 -395 -176 -526 -60 -57 50 -86 116 -95 215 l-6
75 795 0 796 0 16 88 c29 161 39 283 33 416 -11 248 -75 415 -215 559 -123
127 -254 193 -472 239 -124 26 -532 34 -655 14z m310 -521 c66 -18 120 -55
149 -105 25 -42 46 -132 46 -197 l0 -53 -356 0 -356 0 7 28 c15 62 73 160 126
213 109 109 246 149 384 114z"/>
<path d="M21261 5514 c-119 -32 -219 -98 -309 -204 -28 -34 -52 -56 -52 -49 0
7 7 51 16 97 12 63 13 91 5 109 l-11 23 -385 0 -385 0 -5 -22 c-3 -13 -86
-483 -185 -1045 -152 -863 -178 -1026 -168 -1043 13 -20 23 -20 425 -20 227 0
413 3 413 6 0 22 135 769 156 864 113 509 293 702 564 606 41 -15 83 -28 93
-29 14 -2 61 67 193 283 96 156 174 295 174 308 0 19 -14 30 -83 62 -46 22
-113 46 -148 55 -80 19 -237 18 -308 -1z"/>
<path d="M23470 5511 c-151 -33 -281 -97 -425 -212 -63 -49 -75 -56 -70 -37 2
13 11 61 20 107 24 131 56 122 -399 119 l-380 -3 -185 -1047 c-155 -877 -182
-1049 -171 -1062 11 -14 60 -16 424 -14 l411 3 101 570 c56 314 107 590 114
615 48 178 166 294 313 306 80 7 140 -21 175 -81 21 -36 23 -49 18 -125 -3
-47 -52 -348 -110 -670 -94 -531 -102 -587 -88 -602 14 -17 47 -18 423 -18
l408 0 10 53 c6 28 51 284 101 567 50 283 100 548 112 589 51 174 171 281 316
283 74 1 123 -22 157 -74 49 -73 47 -93 -73 -768 -99 -558 -108 -617 -94 -632
14 -17 47 -18 423 -18 l408 0 10 53 c31 156 232 1316 242 1397 13 108 6 248
-16 335 -50 190 -200 328 -405 371 -119 25 -367 15 -485 -21 -141 -41 -252
-107 -442 -261 l-32 -26 -27 53 c-14 30 -54 82 -87 117 -109 113 -233 153
-475 151 -92 0 -165 -6 -222 -18z"/>
<path d="M27090 5519 c-302 -34 -511 -117 -671 -267 -89 -83 -142 -157 -199
-279 -45 -94 -45 -93 -27 -116 10 -14 77 -24 382 -57 204 -22 375 -40 380 -40
6 0 24 24 42 53 83 138 188 188 397 189 172 1 209 -23 214 -137 l4 -73 -108
-35 c-154 -50 -226 -67 -594 -142 -426 -87 -564 -133 -702 -235 -147 -110
-252 -311 -265 -510 -16 -249 144 -458 403 -524 153 -39 424 -38 610 3 166 36
272 82 420 182 l71 48 7 -54 c3 -30 15 -79 27 -110 l20 -55 384 0 c447 0 419
-7 388 102 -12 44 -17 97 -17 178 1 99 14 186 93 629 78 439 92 530 92 622 0
270 -93 439 -293 539 -93 45 -207 72 -382 89 -126 13 -565 12 -676 0z m424
-1261 c-18 -94 -30 -131 -66 -199 -51 -97 -152 -175 -287 -220 -83 -28 -217
-31 -273 -7 -104 46 -103 191 2 281 54 46 132 76 340 132 91 24 192 53 225 64
33 10 63 19 66 20 4 1 1 -31 -7 -71z"/>
<path d="M5120 5482 c0 -5 -54 -314 -120 -688 -66 -374 -124 -724 -131 -779
-45 -407 139 -656 513 -695 113 -11 284 4 391 35 146 42 261 108 435 251 17
15 32 22 32 17 0 -5 -9 -59 -20 -118 -18 -101 -18 -111 -3 -127 15 -17 41 -18
397 -16 l381 3 183 1040 c143 810 181 1045 173 1062 l-11 23 -410 0 -410 0 -5
-22 c-3 -13 -48 -264 -100 -558 -53 -301 -106 -570 -120 -615 -46 -142 -99
-213 -197 -266 -55 -29 -72 -33 -138 -34 -97 0 -145 23 -178 86 -21 39 -23 54
-19 134 3 50 51 346 106 660 85 477 100 574 90 592 l-12 23 -414 0 c-227 0
-413 -4 -413 -8z"/>
<path d="M18706 5463 c-4 -16 -87 -487 -186 -1048 -166 -944 -178 -1021 -163
-1037 15 -17 45 -18 422 -18 l407 0 184 1045 c140 796 182 1050 174 1063 -10
16 -47 17 -422 20 l-410 2 -6 -27z"/>
</g>
</svg>
